<svg width="185" height="30" viewBox="0 0 185 30" fill="none" xmlns="http://www.w3.org/2000/svg">
<path d="M8.8 29V1.4H14.96V29H8.8ZM0.8 7.2V1.4H22.96V7.2H0.8ZM43.67 29V1.4H49.87V29H43.67ZM26.23 29V1.4H32.43V29H26.23ZM28.95 17.88V12.08H47.15V17.88H28.95ZM54.8238 29V1.4H61.0238V29H54.8238ZM57.5438 29V23.2H75.6238V29H57.5438ZM57.5438 17.72V12.24H73.7438V17.72H57.5438ZM57.5438 7.2V1.4H75.4638V7.2H57.5438ZM89.7103 29.56C86.8036 29.56 84.3636 28.8933 82.3903 27.56C80.417 26.2 79.0036 24.1467 78.1503 21.4L84.1903 19.36C84.7236 20.9867 85.4836 22.1733 86.4703 22.92C87.4836 23.64 88.6836 24 90.0703 24C91.537 24 92.6036 23.76 93.2703 23.28C93.937 22.7733 94.2703 22.1467 94.2703 21.4C94.2703 20.6533 93.9903 20.0533 93.4303 19.6C92.897 19.12 92.1636 18.7333 91.2303 18.44C90.3236 18.12 89.3236 17.8133 88.2303 17.52C87.1636 17.2267 86.0836 16.8933 84.9903 16.52C83.9236 16.1467 82.9236 15.6533 81.9903 15.04C81.0836 14.4267 80.3503 13.64 79.7903 12.68C79.257 11.72 78.9903 10.52 78.9903 9.08C78.9903 7.45333 79.4036 6.02667 80.2303 4.8C81.0836 3.57333 82.297 2.61333 83.8703 1.92C85.4703 1.2 87.377 0.839998 89.5903 0.839998C92.2036 0.839998 94.4436 1.48 96.3103 2.76C98.2036 4.01333 99.537 5.86667 100.31 8.32L94.5103 10.36C94.0303 8.94666 93.3236 7.93333 92.3903 7.32C91.457 6.68 90.337 6.36 89.0303 6.36C87.6436 6.36 86.657 6.6 86.0703 7.08C85.5103 7.56 85.2303 8.10667 85.2303 8.72C85.2303 9.38667 85.5103 9.92 86.0703 10.32C86.6303 10.72 87.3636 11.0667 88.2703 11.36C89.177 11.6533 90.177 11.9467 91.2703 12.24C92.3903 12.5067 93.497 12.8533 94.5903 13.28C95.6836 13.68 96.6836 14.2133 97.5903 14.88C98.497 15.52 99.2303 16.3467 99.7903 17.36C100.35 18.3733 100.63 19.64 100.63 21.16C100.63 22.8133 100.19 24.28 99.3103 25.56C98.4303 26.8133 97.177 27.8 95.5503 28.52C93.9236 29.2133 91.977 29.56 89.7103 29.56ZM121.834 29V1.4H128.034V29H121.834ZM104.394 29V1.4H110.594V29H104.394ZM107.114 17.88V12.08H125.314V17.88H107.114ZM145.028 29.56C142.441 29.56 140.161 29 138.188 27.88C136.241 26.7333 134.708 25.0933 133.588 22.96C132.494 20.8 131.948 18.2133 131.948 15.2C131.948 12.1867 132.494 9.61333 133.588 7.48C134.708 5.32 136.241 3.68 138.188 2.56C140.161 1.41333 142.441 0.839998 145.028 0.839998C147.614 0.839998 149.881 1.41333 151.828 2.56C153.801 3.68 155.334 5.32 156.428 7.48C157.548 9.61333 158.108 12.1867 158.108 15.2C158.108 18.2133 157.548 20.8 156.428 22.96C155.334 25.0933 153.801 26.7333 151.828 27.88C149.881 29 147.614 29.56 145.028 29.56ZM145.028 23.72C147.081 23.72 148.721 23.0133 149.948 21.6C151.174 20.16 151.788 18.0267 151.788 15.2C151.788 12.3733 151.174 10.2533 149.948 8.84C148.721 7.4 147.081 6.68 145.028 6.68C142.974 6.68 141.334 7.4 140.108 8.84C138.881 10.2533 138.268 12.3733 138.268 15.2C138.268 18.0267 138.881 20.16 140.108 21.6C141.334 23.0133 142.974 23.72 145.028 23.72ZM164.731 20.48V14.68H172.811C174.545 14.68 175.785 14.36 176.531 13.72C177.305 13.08 177.691 12.1467 177.691 10.92C177.691 9.72 177.305 8.8 176.531 8.16C175.785 7.52 174.545 7.2 172.811 7.2H164.731V1.4H173.171C175.545 1.4 177.531 1.8 179.131 2.6C180.758 3.37333 181.971 4.48 182.771 5.92C183.598 7.33333 184.011 9 184.011 10.92C184.011 12.84 183.598 14.52 182.771 15.96C181.971 17.4 180.758 18.52 179.131 19.32C177.531 20.0933 175.545 20.48 173.171 20.48H164.731ZM162.011 29V1.4H168.211V29H162.011Z" fill="black"/>
</svg>
